# xmcd CD database file
# Copyright (C) 1993-1998 Ti Kan
#
# Track frame offsets:
#	150
#	19597
#	31512
#	40957
#	56364
#	79293
#	93918
#	105115
#	116183
#	132389
#	147282
#	163988
#	179101
#	197935
#	212898
#	233777
#	249310
#
# Disc length: 3600 seconds
#
# Revision: 0
# Processed by: cddbd v1.4b41PL2 Copyright (c) Steve Scherf et al.
# Submitted via: CDmax 1.4
#
DISCID=ea0e0e11
DTITLE=Murdo McRae - Australian Contemporary Collection
DYEAR=1900
DGENRE=
TTITLE0=I Am Australian
TTITLE1=Home Among The Gum Trees
TTITLE2=Skippy
TTITLE3=I Still Call Australia Home
TTITLE4=Waltzing Matilda
TTITLE5=Six White Boomers
TTITLE6=Duncan
TTITLE7=Tie Me Kangaroo Down, Sport
TTITLE8=Tenterfield Saddler
TTITLE9=Pub With No Beer
TTITLE10=True Blue
TTITLE11=Jake The Peg
TTITLE12=Raining On The Rock
TTITLE13=Old Man Emu
TTITLE14=And The Band Played Waltzing Matilda
TTITLE15=My Boomerang Won't Come Back
TTITLE16=I Was Only Nineteen
EXTD=
EXTT0=
EXTT1=
EXTT2=
EXTT3=
EXTT4=
EXTT5=
EXTT6=
EXTT7=
EXTT8=
EXTT9=
EXTT10=
EXTT11=
EXTT12=
EXTT13=
EXTT14=
EXTT15=
EXTT16=
PLAYORDER=
